#!OML:ASF F:\VICON\USERDATA\INSTALL\rory3\rory3.ASF
:FULLY-SPECIFIED
:DEGREES
2348
root -0.0218067 17.3459 0.299749 1.16309 4.73791 -2.78052
lowerback -5.62454 -0.190025 0.442205
upperback -9.0205 -0.366867 -2.71947
thorax -6.27699 -0.308771 -3.09293
lowerneck -2.24145 -12.3558 -18.291
upperneck 26.1513 -22.4526 22.0082
head 14.2161 -10.3098 8.42677
rclavicle 1.11319e-014 -6.36111e-015
rhumerus -18.6361 -52.9598 -17.7821
rradius 76.5306
rwrist -24.8048
rhand -23.9451 7.35633
rfingers 7.12502
rthumb 2.53036 -22.6084
lclavicle 1.11319e-014 -6.36111e-015
lhumerus 19.1695 42.8966 60.3595
lradius 80.8405
lwrist 46.0958
lhand -7.63127 31.4011
lfingers 7.12502
lthumb 18.2636 60.5637
rfemur 9.69081 6.49464 23.516
rtibia -3.18055e-015
rfoot -8.90263 -12.686
rtoes -9.08349
lfemur -2.75959 -16.7701 -15.8191
ltibia 19.3805
lfoot -17.8106 6.71237
ltoes -14.9729
2349
root -0.0170845 17.3467 0.282909 1.13099 4.72859 -2.8133
lowerback -5.53781 -0.227467 0.503532
upperback -8.87623 -0.410957 -2.59978
thorax -6.17107 -0.328053 -2.99986
lowerneck -2.39409 -12.3786 -18.3889
upperneck 26.0487 -22.3955 21.9341
head 14.187 -10.2876 8.40269
rclavicle -3.97569e-015 -1.74931e-014
rhumerus -18.9611 -51.3918 -18.3385
rradius 77.4684
rwrist -24.8842
rhand -23.8051 7.27717
rfingers 7.12502
rthumb 2.66554 -22.6859
lclavicle -3.97569e-015 -1.74931e-014
lhumerus 18.8151 41.552 59.9314
lradius 81.5054
lwrist 46.1956
lhand -7.4079 31.3743
lfingers 7.12502
lthumb 18.4785 60.5167
rfemur 9.65208 6.48205 23.5265
rtibia 2.38542e-014
rfoot -8.80808 -12.6755
rtoes -9.18319
lfemur -2.82717 -16.6846 -15.7871
ltibia 19.4165
lfoot -17.7205 6.70188
ltoes -15.4634
2350
root -0.0105599 17.3468 0.266916 1.10179 4.67713 -2.8049
lowerback -5.55808 -0.299347 0.494076
upperback -8.67441 -0.495514 -2.41069
thorax -5.9427 -0.359174 -2.79427
lowerneck -2.69613 -12.4007 -18.5362
upperneck 26.032 -22.2884 21.7418
head 14.2004 -10.2429 8.3412
rclavicle -1.07344e-014 3.89618e-014
rhumerus -19.0643 -49.9363 -19.1783
rradius 78.4399
rwrist -24.7198
rhand -23.7338 7.273
rfingers 7.12502
rthumb 2.73442 -22.6892
lclavicle -1.07344e-014 3.89618e-014
lhumerus 18.416 40.26 59.4832
lradius 82.2795
lwrist 46.3078
lhand -7.03578 31.212
lfingers 7.12502
lthumb 18.8364 60.32
rfemur 9.61463 6.51125 23.4847
rtibia 4.13472e-014
rfoot -8.70972 -12.6658
rtoes -9.27161
lfemur -2.89132 -16.6368 -15.8242
ltibia 19.4885
lfoot -17.7088 6.73221
ltoes -15.5606
2351
root -0.00064052 17.3482 0.253732 1.09018 4.60852 -2.80634
lowerback -5.67084 -0.341938 0.563207
upperback -8.43475 -0.543031 -2.25766
thorax -5.62153 -0.377249 -2.67165
lowerneck -2.92674 -12.4564 -18.5886
upperneck 25.8739 -22.225 21.5699
head 14.1366 -10.2142 8.2565
rclavicle -3.97569e-016 -1.19271e-014
rhumerus -19.4001 -48.5996 -19.9289
rradius 79.4885
rwrist -24.5922
rhand -23.4847 7.17644
rfingers 7.12502
rthumb 2.97503 -22.7825
lclavicle -3.97569e-016 -1.19271e-014
lhumerus 18.1383 38.8255 59.1074
lradius 83.1441
lwrist 46.4973
lhand -6.68818 31.0557
lfingers 7.12502
lthumb 19.1707 60.1308
rfemur 9.57217 6.55908 23.438
rtibia -2.22639e-014
rfoot -8.64979 -12.6562
rtoes -9.18038
lfemur -2.95719 -16.4802 -15.8481
ltibia 19.5453
lfoot -17.6857 6.71386
ltoes -15.7733
2352
root 0.00795801 17.3513 0.237322 1.13599 4.54188 -2.84927
lowerback -5.71625 -0.380717 0.677831
upperback -8.28032 -0.589309 -2.11528
thorax -5.43158 -0.399538 -2.58684
lowerneck -2.92939 -12.4861 -18.5683
upperneck 25.5534 -22.1238 21.4003
head 13.9296 -10.1821 8.17295
rclavicle -1.11319e-014 1.27222e-014
rhumerus -19.9218 -47.2863 -20.6685
rradius 80.5821
rwrist -24.5107
rhand -23.0448 7.12382
rfingers 7.12502
rthumb 3.39984 -22.8288
lclavicle -1.11319e-014 1.27222e-014
lhumerus 17.8328 37.1529 58.5459
lradius 83.9048
lwrist 46.7396
lhand -6.0442 30.729
lfingers 7.12502
lthumb 19.7899 59.7415
rfemur 9.44604 6.60961 23.4335
rtibia -1.59028e-015
rfoot -8.60915 -12.5965
rtoes -8.95813
lfemur -3.0782 -16.3756 -15.7972
ltibia 19.5579
lfoot -17.5758 6.72125
ltoes -15.8047
2353
root 0.0153893 17.3534 0.221122 1.12162 4.50659 -2.79968
lowerback -5.61796 -0.451057 0.680605
upperback -8.14552 -0.677508 -1.98623
thorax -5.34461 -0.437855 -2.45315
lowerneck -2.98606 -12.5041 -18.5696
upperneck 25.3362 -22.0251 21.2372
head 13.7881 -10.1475 8.10137
rclavicle 1.07344e-014 5.56597e-015
rhumerus -20.4748 -45.9398 -21.4899
rradius 81.7583
rwrist -24.4823
rhand -22.7912 7.04663
rfingers 7.12502
rthumb 3.64472 -22.902
lclavicle 1.07344e-014 5.56597e-015
lhumerus 17.6014 35.3873 57.9575
lradius 84.6643
lwrist 47.1262
lhand -5.2172 30.3465
lfingers 7.12502
lthumb 20.5847 59.275
rfemur 9.4075 6.62269 23.337
rtibia 1.74931e-014
rfoot -8.58329 -12.5619
rtoes -9.10939
lfemur -3.11369 -16.3171 -15.8708
ltibia 19.5453
lfoot -17.484 6.70582
ltoes -16.0284
